<svg width="104" height="164" viewBox="0 0 104 164" fill="none" xmlns="http://www.w3.org/2000/svg">
<rect x="1" y="1" width="102" height="162" fill="#141414" stroke="#2D2D2D" stroke-width="2"/>
<path d="M103 1V112.5C103 140.39 80.3904 163 52.5 163H1V51.5C1 23.6096 23.6096 1 51.5 1H103Z" fill="#EDEDED" stroke="#2D2D2D" stroke-width="2"/>
<path d="M92 82C92 93.0457 83.0457 102 72 102C60.9543 102 52 93.0457 52 82C52 70.9543 60.9543 62 72 62C83.0457 62 92 70.9543 92 82ZM58 82C58 89.732 64.268 96 72 96C79.732 96 86 89.732 86 82C86 74.268 79.732 68 72 68C64.268 68 58 74.268 58 82Z" fill="#FF5249"/>
<path d="M80.2842 110.284C72.4737 118.095 59.8104 118.095 52 110.284C44.1895 102.474 44.1895 89.8105 52 82C59.8105 74.1895 72.4737 74.1895 80.2842 82C88.0947 89.8105 88.0947 102.474 80.2842 110.284ZM56.2426 86.2426C50.7753 91.71 50.7753 100.574 56.2426 106.042C61.7099 111.509 70.5742 111.509 76.0416 106.042C81.5089 100.574 81.5089 91.71 76.0416 86.2426C70.5742 80.7753 61.7099 80.7753 56.2426 86.2426Z" fill="#53A5DC"/>
<path d="M52.0001 122C40.9544 122 32.0001 113.046 32.0001 102C32.0001 90.9543 40.9543 82 52 82C63.0457 82 72 90.9543 72 102C72 113.046 63.0458 122 52.0001 122ZM52.0001 88C44.2681 88 38.0001 94.268 38.0001 102C38.0001 109.732 44.2681 116 52.0001 116C59.7321 116 66.0001 109.732 66.0001 102C66.0001 94.268 59.7321 88 52.0001 88Z" fill="#34C838"/>
<path d="M23.7158 110.284C15.9053 102.474 15.9053 89.8105 23.7158 82C31.5263 74.1896 44.1895 74.1895 52 82C59.8105 89.8105 59.8104 102.474 52 110.284C44.1895 118.095 31.5263 118.095 23.7158 110.284ZM47.7574 86.2427C42.2901 80.7754 33.4258 80.7754 27.9584 86.2427C22.4911 91.71 22.4911 100.574 27.9584 106.042C33.4258 111.509 42.2901 111.509 47.7574 106.042C53.2248 100.574 53.2248 91.71 47.7574 86.2427Z" fill="#F4D84B"/>
<path d="M52 82C52 93.0457 43.0458 102 32.0001 102C20.9544 102 12 93.0457 12 82C12 70.9543 20.9543 62 32 62C43.0457 62 52 70.9543 52 82ZM18 82C18 89.732 24.268 96 32 96C39.732 96 46 89.732 46 82C46 74.268 39.732 68 32 68C24.268 68 18 74.268 18 82Z" fill="#FF5249"/>
<path d="M52 82C44.1895 89.8105 31.5263 89.8105 23.7158 82C15.9053 74.1896 15.9052 61.5262 23.7157 53.7157C31.5262 45.9052 44.1895 45.9052 52 53.7157C59.8104 61.5262 59.8105 74.1895 52 82ZM27.9583 57.9584C22.491 63.4257 22.491 72.29 27.9583 77.7574C33.4257 83.2247 42.29 83.2247 47.7573 77.7574C53.2246 72.29 53.2246 63.4257 47.7573 57.9584C42.29 52.491 33.4257 52.491 27.9583 57.9584Z" fill="#53A5DC"/>
<path d="M52 82C40.9543 82 32 73.0457 32 62C32 50.9543 40.9544 42 52.0001 42C63.0458 42 72 50.9543 72 62C72 73.0457 63.0457 82 52 82ZM52.0001 48C44.2681 48 38.0001 54.268 38.0001 62C38.0001 69.732 44.2681 76 52.0001 76C59.7321 76 66.0001 69.732 66.0001 62C66.0001 54.268 59.7321 48 52.0001 48Z" fill="#34C838"/>
<path d="M52 82C44.1895 74.1895 44.1895 61.5262 52 53.7157C59.8104 45.9052 72.4738 45.9053 80.2843 53.7158C88.0948 61.5263 88.0947 74.1895 80.2842 82C72.4737 89.8105 59.8105 89.8105 52 82ZM76.0417 57.9584C70.5744 52.4911 61.71 52.4911 56.2427 57.9584C50.7754 63.4258 50.7754 72.2901 56.2427 77.7574C61.71 83.2247 70.5743 83.2247 76.0417 77.7574C81.509 72.2901 81.509 63.4258 76.0417 57.9584Z" fill="#F4D84B"/>
<path d="M52 41C57.6507 41 62.78 43.2321 66.5547 46.8623C71.7907 46.9646 76.9956 49.0132 80.9912 53.0088C84.9868 57.0044 87.0345 62.2093 87.1367 67.4453C90.7673 71.2201 93 76.349 93 82C93 87.6507 90.767 92.779 87.1367 96.5537C87.0347 101.79 84.987 106.995 80.9912 110.991C76.9957 114.987 71.7907 117.034 66.5547 117.137C62.7799 120.767 57.6509 123 52 123C46.3491 123 41.2201 120.767 37.4453 117.137C32.2093 117.034 27.0044 114.987 23.0088 110.991C19.013 106.995 16.9643 101.79 16.8623 96.5537C13.2323 92.779 11 87.6504 11 82C11 76.3493 13.232 71.2201 16.8623 67.4453C16.9645 62.2093 19.0132 57.0044 23.0088 53.0088C27.0044 49.0132 32.2093 46.9645 37.4453 46.8623C41.2201 43.2321 46.3493 41 52 41ZM52 111.665C50.8134 112.748 49.5325 113.669 48.1855 114.431C49.3918 114.8 50.6726 115 52 115C53.3271 115 54.6075 114.8 55.8135 114.431C54.4668 113.669 53.1864 112.748 52 111.665ZM45.252 98.2891C43.4035 99.7947 41.2943 100.991 39.002 101.802C39.001 101.868 39 101.934 39 102C39 104.485 39.6972 106.806 40.9062 108.78C43.1577 108.239 45.2936 107.092 47.0508 105.335C47.0973 105.288 47.1419 105.24 47.1875 105.193C46.1397 102.999 45.4943 100.661 45.252 98.2891ZM58.7471 98.2891C58.5047 100.661 57.8594 102.999 56.8115 105.193C56.8573 105.241 56.9026 105.288 56.9492 105.335C58.7062 107.092 60.8417 108.239 63.0928 108.78C64.3021 106.806 65 104.485 65 102C65 101.934 64.9981 101.868 64.9971 101.802C62.7048 100.991 60.5954 99.7947 58.7471 98.2891ZM26.3711 102.235C26.9626 103.35 27.7275 104.396 28.666 105.335C29.6041 106.273 30.65 107.038 31.7637 107.629C31.3499 106.138 31.0959 104.581 31.0225 102.977C29.4184 102.903 27.8616 102.649 26.3711 102.235ZM77.6279 102.235C76.1374 102.649 74.5807 102.903 72.9766 102.977C72.9031 104.581 72.649 106.137 72.2354 107.628C73.3494 107.036 74.3966 106.273 75.335 105.335C76.2733 104.397 77.0365 103.349 77.6279 102.235ZM28.666 86.9502C26.909 88.7072 25.7596 90.8416 25.2188 93.0928C27.1931 94.3023 29.515 95 32 95C32.0659 95 32.1316 94.998 32.1973 94.9971C33.0079 92.7049 34.2044 90.5954 35.71 88.7471C33.3383 88.5046 31.0007 87.8593 28.8066 86.8115C28.7595 86.8573 28.7126 86.9036 28.666 86.9502ZM75.1924 86.8115C72.9983 87.8592 70.6608 88.5047 68.2891 88.7471C69.7947 90.5954 70.9911 92.7048 71.8018 94.9971C71.8677 94.9981 71.9338 95 72 95C74.4847 95 76.8061 94.302 78.7803 93.0928C78.2394 90.8419 77.0917 88.7071 75.335 86.9502C75.2882 86.9034 75.2397 86.8575 75.1924 86.8115ZM19.5684 78.1855C19.1987 79.3918 19 80.6727 19 82C19 83.327 19.1989 84.6075 19.5684 85.8135C20.3298 84.4668 21.2515 83.1864 22.334 82C21.2513 80.8134 20.3299 79.5325 19.5684 78.1855ZM84.4307 78.1855C83.669 79.5325 82.7478 80.8134 81.665 82C82.7476 83.1864 83.6691 84.4668 84.4307 85.8135C84.8002 84.6074 85 83.3271 85 82C85 80.6726 84.8004 79.3918 84.4307 78.1855ZM32 69C29.5152 69 27.193 69.6969 25.2188 70.9062C25.7595 73.1575 26.908 75.2926 28.665 77.0498C28.7115 77.0963 28.7596 77.1419 28.8066 77.1875C31.0006 76.1399 33.3384 75.4944 35.71 75.252C34.2044 73.4035 33.0078 71.2942 32.1973 69.002C32.1316 69.001 32.0659 69 32 69ZM71.8018 69.002C70.9912 71.2943 69.7947 73.4035 68.2891 75.252C70.6609 75.4943 72.9991 76.1397 75.1934 77.1875C75.2404 77.1419 75.2885 77.0973 75.335 77.0508C77.0922 75.2936 78.2395 73.1577 78.7803 70.9062C76.8062 69.6971 74.4845 69 72 69C71.9338 69 71.8677 69.001 71.8018 69.002ZM40.9062 55.2188C39.6969 57.193 39 59.5152 39 62C39 62.0659 39.001 62.1316 39.002 62.1973C41.2942 63.0078 43.4035 64.2044 45.252 65.71C45.4944 63.3384 46.1399 61.0006 47.1875 58.8066C47.1419 58.7596 47.0963 58.7115 47.0498 58.665C45.2926 56.908 43.1575 55.7595 40.9062 55.2188ZM63.0928 55.2188C60.8418 55.7596 58.7071 56.9083 56.9502 58.665C56.9035 58.7117 56.8573 58.7595 56.8115 58.8066C57.8593 61.0007 58.5046 63.3383 58.7471 65.71C60.5954 64.2044 62.7049 63.0079 64.9971 62.1973C64.998 62.1316 65 62.0659 65 62C65 59.515 64.3023 57.1931 63.0928 55.2188ZM31.7637 56.3701C30.6496 56.9616 29.6034 57.7267 28.665 58.665C27.7267 59.6034 26.9616 60.6496 26.3701 61.7637C27.8608 61.3498 29.4181 61.096 31.0225 61.0225C31.096 59.4181 31.3498 57.8608 31.7637 56.3701ZM72.2354 56.3711C72.6491 57.8616 72.9031 59.4184 72.9766 61.0225C74.5809 61.0959 76.1382 61.3499 77.6289 61.7637C77.0375 60.6498 76.2732 59.6033 75.335 58.665C74.3965 57.7266 73.3495 56.9626 72.2354 56.3711ZM52 49C50.6727 49 49.3918 49.1987 48.1855 49.5684C49.5325 50.3299 50.8134 51.2513 52 52.334C53.1864 51.2515 54.4668 50.3298 55.8135 49.5684C54.6076 49.1989 53.327 49 52 49Z" stroke="#2D2D2D" stroke-width="2"/>
</svg>
