<svg width="104" height="164" viewBox="0 0 104 164" fill="none" xmlns="http://www.w3.org/2000/svg">
<rect x="1" y="1" width="102" height="162" fill="#53A5DC" stroke="#2D2D2D" stroke-width="2"/>
<path d="M103 1V112.5C103 140.39 80.3904 163 52.5 163H1V51.5C1 23.6096 23.6096 1 51.5 1H103Z" fill="#EDEDED" stroke="#2D2D2D" stroke-width="2"/>
<path d="M69.7197 52C72.9622 52 75.9726 52.7003 78.7344 54.1094C81.5004 55.5206 83.7153 57.506 85.3604 60.0586H85.3594C87.0769 62.5873 87.9199 65.5548 87.9199 68.9199C87.9199 71.8972 87.2442 74.6209 85.8809 77.0703L85.8818 77.0713C84.6022 79.4636 82.9347 81.6291 80.8867 83.5664C78.8762 85.4682 76.7302 87.2076 74.4482 88.7832L74.4473 88.7822C72.2672 90.3242 70.1929 91.7868 68.2246 93.1699C66.3459 94.5268 64.8002 95.8712 63.5752 97.1982C62.4865 98.4347 62 99.6689 62 100.92V102.96H84.4404C85.5714 102.96 86.4791 103.543 87.1494 104.466C87.8886 105.355 88.2402 106.433 88.2402 107.64C88.2402 108.857 87.8832 109.967 87.1729 110.94C86.5003 111.882 85.5849 112.48 84.4404 112.48H55.96C55.0007 112.48 54.0113 112.173 53.0117 111.644L52.9805 111.627L52.9502 111.608C51.8658 110.931 51.2002 109.944 51.2002 108.68V100.92C51.2002 98.5333 51.8735 96.3379 53.2119 94.3594L53.2148 94.3545C54.5527 92.4034 56.2437 90.5769 58.2773 88.873L58.2881 88.8652C60.3321 87.1977 62.4822 85.5847 64.7383 84.0264L66.3818 82.835C68 81.6437 69.5426 80.4533 71.0098 79.2637C72.926 77.6568 74.4893 76.0117 75.7109 74.332C76.8727 72.7346 77.4404 71.0186 77.4404 69.1602C77.4404 67.9934 77.1616 66.8389 76.5859 65.6875L76.5781 65.6719L76.5713 65.6562C76.069 64.5604 75.2654 63.6323 74.125 62.8721C73.054 62.1581 71.6105 61.7598 69.7197 61.7598C67.6865 61.7598 65.9938 62.3347 64.5889 63.457C63.3512 64.4861 62.6397 66.1515 62.6396 68.6797C62.6396 69.8562 62.0388 70.8576 61.0947 71.6758L61.0908 71.6797C60.1009 72.5281 58.7685 72.8798 57.2402 72.8799C55.8796 72.8799 54.6819 72.5046 53.7617 71.6553L53.7471 71.6416L53.7324 71.627C52.7453 70.6396 52.4004 69.0353 52.4004 67.1602C52.4004 64.0982 53.1969 61.4075 54.8271 59.1367C56.4265 56.8556 58.5647 55.0955 61.2158 53.8545C63.8605 52.6165 66.6994 52 69.7197 52ZM31.5996 65C32.8565 65 33.9716 65.3503 34.8359 66.1426C35.6267 66.8675 36.1201 67.7586 36.1201 68.7998V77H44.3203C45.4242 77.0001 46.3514 77.53 47.083 78.3945C47.8402 79.2894 48.2001 80.3792 48.2002 81.5996C48.2002 82.8202 47.8403 83.9107 47.083 84.8057L47.0703 84.8213L47.0576 84.8359C46.3154 85.6456 45.3935 86.12 44.3203 86.1201H36.1201V94.4004C36.12 95.5108 35.6569 96.4538 34.7998 97.168L34.7803 97.1846L34.7598 97.2002C33.897 97.8471 32.8109 98.1201 31.5996 98.1201C30.4643 98.1201 29.4201 97.8333 28.499 97.2412L28.4639 97.2188L28.4307 97.1924C27.5178 96.4902 27.0001 95.5426 27 94.4004V86.1201H18.7197C17.6092 86.12 16.6664 85.6569 15.9521 84.7998L15.9229 84.7656L15.8975 84.7295C15.28 83.8376 15 82.7746 15 81.5996C15.0001 80.4249 15.2801 79.3625 15.8975 78.4707L15.9121 78.4502L15.9277 78.4307C16.63 77.5178 17.5775 77.0001 18.7197 77H27V68.7998C27.0001 67.7272 27.5511 66.8299 28.3945 66.1162L28.4082 66.1045L28.4219 66.0938C29.3467 65.3671 30.4184 65.0001 31.5996 65Z" fill="#53A5DC" stroke="#2D2D2D" stroke-width="2"/>
</svg>
