<svg width="104" height="164" viewBox="0 0 104 164" fill="none" xmlns="http://www.w3.org/2000/svg">
<rect x="1" y="1" width="102" height="162" fill="#34C838" stroke="#2D2D2D" stroke-width="2"/>
<path d="M103 1V112.5C103 140.39 80.3904 163 52.5 163H1V51.5C1 23.6096 23.6096 1 51.5 1H103Z" fill="#EDEDED" stroke="#2D2D2D" stroke-width="2"/>
<path d="M56.5195 52C57.218 52 57.938 52.1736 58.665 52.4766C59.4228 52.7923 60.0927 53.2383 60.667 53.8125C61.339 54.4845 61.6797 55.3281 61.6797 56.2803C61.6796 56.7911 61.5171 57.3591 61.2881 57.9316L61.2725 57.9717L61.2529 58.0098L45.4229 89.4404H54.5596V79.4004C54.5596 78.7522 54.6972 78.1338 55.0195 77.5898C55.3439 77.0425 55.819 76.6325 56.3926 76.3457L56.4033 76.3398L56.4141 76.335C57.4624 75.8416 58.5957 75.5996 59.7998 75.5996C60.9943 75.5996 62.1025 75.8386 63.1045 76.335H63.1055C63.7004 76.6149 64.2005 77.0189 64.5459 77.5674C64.8908 78.1152 65.04 78.7416 65.04 79.4004V89.4404H68.04C68.6714 89.4404 69.2732 89.5818 69.8037 89.9082C70.3314 90.233 70.727 90.703 71.0088 91.2627C71.5675 92.2172 71.8398 93.2847 71.8398 94.4404C71.8398 95.614 71.4774 96.7109 70.791 97.7139L70.792 97.7148C70.1331 98.7032 69.2162 99.3603 68.04 99.3604H65.04V108.68C65.04 109.308 64.88 109.902 64.5371 110.427C64.2026 110.938 63.7272 111.332 63.1689 111.631L63.1699 111.632C62.1538 112.203 61.0223 112.48 59.7998 112.48C58.5768 112.48 57.4286 112.203 56.3721 111.644L56.3613 111.638L56.3496 111.632C55.2122 110.992 54.5596 109.982 54.5596 108.68V99.3604H35.96C34.8455 99.3603 33.8506 99.0253 33.0928 98.2676L33.0762 98.25L33.0605 98.2324C32.3262 97.4246 32 96.3937 32 95.2402C32 94.9082 32.0332 94.5585 32.0938 94.1953L32.1064 94.1182L32.1309 94.0439C32.2543 93.6736 32.4113 93.3246 32.6025 93L51.8672 54.8691L51.8887 54.8301C52.4258 53.8752 53.1055 53.1195 53.9658 52.6807V52.6797C54.7847 52.2388 55.6395 52.0001 56.5195 52Z" fill="#34C838" stroke="#2D2D2D" stroke-width="2"/>
</svg>
