<svg width="104" height="164" viewBox="0 0 104 164" fill="none" xmlns="http://www.w3.org/2000/svg">
<rect x="1" y="1" width="102" height="162" fill="#34C838" stroke="#2D2D2D" stroke-width="2"/>
<path d="M103 1V112.5C103 140.39 80.3904 163 52.5 163H1V51.5C1 23.6096 23.6096 1 51.5 1H103Z" fill="#EDEDED" stroke="#2D2D2D" stroke-width="2"/>
<path d="M77.7197 52C78.4181 52 79.1374 52.1737 79.8643 52.4766C80.6221 52.7923 81.2929 53.2382 81.8672 53.8125C82.5392 54.4845 82.8799 55.3281 82.8799 56.2803C82.8798 56.7911 82.7173 57.359 82.4883 57.9316L82.4727 57.9717L82.4531 58.0098L66.623 89.4404H75.7598V79.4004C75.7598 78.7522 75.8974 78.1338 76.2197 77.5898C76.5441 77.0425 77.0191 76.6325 77.5928 76.3457L77.6035 76.3398L77.6143 76.335C78.6626 75.8417 79.7959 75.5996 81 75.5996C82.1945 75.5996 83.3027 75.8386 84.3047 76.335H84.3057C84.9006 76.6149 85.4007 77.0189 85.7461 77.5674C86.091 78.1152 86.2402 78.7416 86.2402 79.4004V89.4404H89.2402C89.8716 89.4405 90.4734 89.5818 91.0039 89.9082C91.5317 90.233 91.9272 90.7029 92.209 91.2627C92.7677 92.2172 93.04 93.2847 93.04 94.4404C93.04 95.614 92.6776 96.711 91.9912 97.7139C91.3323 98.7022 90.4163 99.3602 89.2402 99.3604H86.2402V108.68C86.2402 109.308 86.0801 109.902 85.7373 110.427C85.4028 110.938 84.9273 111.332 84.3691 111.631L84.3701 111.632C83.354 112.203 82.2225 112.48 81 112.48C79.777 112.48 78.6289 112.203 77.5723 111.644L77.5605 111.638L77.5498 111.632C76.4124 110.992 75.7598 109.982 75.7598 108.68V99.3604H57.1602C56.0458 99.3604 55.0508 99.0252 54.293 98.2676L54.2598 98.2324C53.5256 97.4247 53.2002 96.3936 53.2002 95.2402C53.2002 94.9082 53.2334 94.5584 53.2939 94.1953L53.3066 94.1182L53.3311 94.0439C53.4522 93.6806 53.6057 93.3379 53.792 93.0186L73.0674 54.8691L73.0771 54.8496L73.0879 54.8301C73.6306 53.8652 74.3192 53.1028 75.1924 52.666V52.667C76.0035 52.2349 76.8489 52 77.7197 52ZM33.5996 66C34.8565 66 35.9716 66.3503 36.8359 67.1426C37.6267 67.8675 38.1201 68.7586 38.1201 69.7998V78H46.3203C47.4242 78.0001 48.3514 78.53 49.083 79.3945C49.8402 80.2894 50.2001 81.3792 50.2002 82.5996C50.2002 83.8202 49.8403 84.9107 49.083 85.8057L49.0703 85.8213L49.0576 85.8359C48.3154 86.6456 47.3935 87.12 46.3203 87.1201H38.1201V95.4004C38.12 96.5108 37.6569 97.4538 36.7998 98.168L36.7803 98.1846L36.7598 98.2002C35.897 98.8471 34.8109 99.1201 33.5996 99.1201C32.4643 99.1201 31.4201 98.8333 30.499 98.2412L30.4639 98.2188L30.4307 98.1924C29.5178 97.4902 29.0001 96.5426 29 95.4004V87.1201H20.7197C19.6092 87.12 18.6664 86.6569 17.9521 85.7998L17.9229 85.7656L17.8975 85.7295C17.28 84.8376 17 83.7746 17 82.5996C17.0001 81.4249 17.2801 80.3625 17.8975 79.4707L17.9121 79.4502L17.9277 79.4307C18.63 78.5178 19.5775 78.0001 20.7197 78H29V69.7998C29.0001 68.7272 29.5511 67.8299 30.3945 67.1162L30.4082 67.1045L30.4219 67.0938C31.3467 66.3671 32.4184 66.0001 33.5996 66Z" fill="#34C838" stroke="#2D2D2D" stroke-width="2"/>
</svg>
