<svg width="104" height="164" viewBox="0 0 104 164" fill="none" xmlns="http://www.w3.org/2000/svg">
<rect x="1" y="1" width="102" height="162" fill="#34C838" stroke="#2D2D2D" stroke-width="2"/>
<path d="M103 1V112.5C103 140.39 80.3904 163 52.5 163H1V51.5C1 23.6096 23.6096 1 51.5 1H103Z" fill="#EDEDED" stroke="#2D2D2D" stroke-width="2"/>
<path d="M51.9199 56C55.4487 56 58.653 56.607 61.5156 57.8418C64.4319 59.0998 66.7493 61.1351 68.4531 63.918C70.1809 66.7402 71 70.4077 71 74.8398V98.1201C71 102.557 70.1524 106.23 68.3652 109.055C66.6061 111.835 64.2358 113.866 61.2695 115.121C58.3575 116.353 55.1289 116.96 51.5996 116.96C48.5267 116.96 45.7952 116.549 43.4238 115.702L43.4102 115.697L43.3965 115.691C41.108 114.798 39.176 113.613 37.626 112.12C36.0988 110.649 34.9269 108.996 34.124 107.161L34.1182 107.148L34.1133 107.137C33.3769 105.324 33 103.516 33 101.72C33 100.248 33.3288 98.9 34.3506 98.127L34.5303 97.9971C35.4481 97.3708 36.646 97.1201 38 97.1201C39.2498 97.1201 40.411 97.3591 41.4658 97.8555C42.1068 98.1572 42.6114 98.6261 42.9434 99.251C43.2675 99.8613 43.4004 100.568 43.4004 101.32C43.4004 102.602 43.7589 103.651 44.4492 104.521C45.1871 105.395 46.1696 106.105 47.4277 106.638C48.7339 107.168 50.174 107.44 51.7598 107.44C54.6154 107.44 56.7116 106.668 58.1836 105.242L58.4561 104.96C59.7798 103.501 60.5195 101.278 60.5195 98.1201V90.4707C59.4472 91.3521 58.2367 92.0313 56.8916 92.5039L56.8906 92.5029C54.8542 93.2371 52.6614 93.5996 50.3203 93.5996C47.2252 93.5996 44.3556 93.1021 41.7227 92.0938L41.71 92.0889L41.6982 92.084C39.0455 90.9882 36.9145 89.1685 35.3164 86.6572L35.3096 86.6455L35.3027 86.6348C33.7348 84.0215 33 80.5392 33 76.2803V74.8398C33 70.4077 33.8191 66.7402 35.5469 63.918C37.2475 61.1403 39.5342 59.1046 42.3975 57.8447L42.4043 57.8418C45.265 56.6078 48.4421 56 51.9199 56ZM51.9199 65.04C49.1853 65.0401 47.1393 65.8043 45.6611 67.2334C44.2779 68.621 43.4805 70.9199 43.4805 74.3604V75.7197C43.4805 79.2825 44.2849 81.5521 45.6348 82.8213C47.107 84.1013 49.1877 84.7998 52 84.7998C54.7137 84.7998 56.756 84.1241 58.2354 82.876L58.2471 82.8662C59.6809 81.693 60.5195 79.6473 60.5195 76.4404V74.3604C60.5195 70.9226 59.6973 68.6263 58.2646 67.2383C56.7894 65.8091 54.7169 65.04 51.9199 65.04Z" fill="#34C838" stroke="#2D2D2D" stroke-width="2"/>
</svg>
