<svg width="104" height="164" viewBox="0 0 104 164" fill="none" xmlns="http://www.w3.org/2000/svg">
<rect x="1" y="1" width="102" height="162" fill="#34C838" stroke="#2D2D2D" stroke-width="2"/>
<path d="M103 1V112.5C103 140.39 80.3904 163 52.5 163H1V51.5C1 23.6096 23.6096 1 51.5 1H103Z" fill="#EDEDED" stroke="#2D2D2D" stroke-width="2"/>
<rect x="56.3333" y="123" width="35.3333" height="55.3333" transform="rotate(180 56.3333 123)" fill="#34C838" stroke="#2D2D2D" stroke-width="2"/>
<path d="M21.0002 123V102C21.0002 83.0382 36.3715 67.667 55.3333 67.667H56.3333V88.667C56.3331 107.629 40.9618 123 22.0002 123H21.0002Z" fill="#EDEDED" stroke="#2D2D2D" stroke-width="2"/>
<rect x="63" y="116.333" width="35.3333" height="55.3333" transform="rotate(180 63 116.333)" fill="#34C838" stroke="#2D2D2D" stroke-width="2"/>
<path d="M27.667 116.333V95.3333C27.667 76.3716 43.0382 61.0003 62 61.0003H63V82.0003C62.9998 100.962 47.6285 116.333 28.667 116.333H27.667Z" fill="#EDEDED" stroke="#2D2D2D" stroke-width="2"/>
<rect x="69.6665" y="109.667" width="35.3333" height="55.3333" transform="rotate(180 69.6665 109.667)" fill="#34C838" stroke="#2D2D2D" stroke-width="2"/>
<path d="M34.3335 109.667V88.6667C34.3335 69.7049 49.7047 54.3336 68.6665 54.3336H69.6665V75.3336C69.6663 94.2952 54.295 109.666 35.3335 109.667H34.3335Z" fill="#EDEDED" stroke="#2D2D2D" stroke-width="2"/>
<rect x="76.3333" y="103" width="35.3333" height="55.3333" transform="rotate(180 76.3333 103)" fill="#34C838" stroke="#2D2D2D" stroke-width="2"/>
<path d="M41.0002 103V82C41.0002 63.0382 56.3715 47.667 75.3333 47.667H76.3333V68.667C76.3331 87.6285 60.9618 103 42.0002 103H41.0002Z" fill="#EDEDED" stroke="#2D2D2D" stroke-width="2"/>
<rect x="82.3333" y="96.3333" width="35.3333" height="55.3333" transform="rotate(180 82.3333 96.3333)" fill="#34C838" stroke="#2D2D2D" stroke-width="2"/>
<path d="M47.0002 96.3333V75.3333C47.0002 56.3716 62.3715 41.0003 81.3333 41.0003H82.3333V62.0003C82.3331 80.9619 66.9618 96.3332 48.0002 96.3333H47.0002Z" fill="#EDEDED" stroke="#2D2D2D" stroke-width="2"/>
</svg>
