<svg width="104" height="164" viewBox="0 0 104 164" fill="none" xmlns="http://www.w3.org/2000/svg">
<rect x="1" y="1" width="102" height="162" fill="#34C838" stroke="#2D2D2D" stroke-width="2"/>
<path d="M103 1V112.5C103 140.39 80.3904 163 52.5 163H1V51.5C1 23.6096 23.6096 1 51.5 1H103Z" fill="#EDEDED" stroke="#2D2D2D" stroke-width="2"/>
<path d="M51.5195 52C54.7619 52 57.7725 52.7004 60.5342 54.1094C63.2923 55.5166 65.5019 57.495 67.1455 60.0371H67.1465C68.8735 62.5703 69.7197 65.5456 69.7197 68.9199C69.7197 71.8972 69.0441 74.6209 67.6807 77.0703L67.6816 77.0713C66.4021 79.4636 64.7354 81.6292 62.6875 83.5664C60.6797 85.4657 58.5353 87.2014 56.2568 88.7754L56.2578 88.7764C54.0742 90.3209 51.9956 91.7847 50.0244 93.1699L50.0254 93.1709C48.1466 94.5278 46.6 95.8712 45.375 97.1982C44.2863 98.4347 43.7998 99.6689 43.7998 100.92V102.96H66.2402C67.3655 102.96 68.2691 103.538 68.9385 104.452C69.6853 105.344 70.04 106.427 70.04 107.64C70.04 108.861 69.682 109.976 68.9668 110.951L68.9658 110.95C68.2938 111.886 67.3809 112.48 66.2402 112.48H37.7598C36.8006 112.48 35.812 112.173 34.8125 111.644L34.7803 111.627L34.75 111.608C33.6656 110.931 33 109.944 33 108.68V100.92C33 98.5333 33.6733 96.3379 35.0117 94.3594L35.0156 94.3545C36.3535 92.4034 38.0445 90.5769 40.0781 88.873L40.0879 88.8652C42.1321 87.1976 44.2827 85.5848 46.5391 84.0264C48.7591 82.4406 50.8452 80.8562 52.7979 79.2734L53.502 78.668C55.1062 77.2508 56.4406 75.8049 57.5117 74.332C58.6735 72.7346 59.2402 71.0185 59.2402 69.1602C59.2402 67.9934 58.9614 66.839 58.3857 65.6875L58.3779 65.6719L58.3711 65.6562C57.8689 64.5606 57.0659 63.6322 55.9258 62.8721C54.8548 62.1581 53.4104 61.7598 51.5195 61.7598C49.4863 61.7599 47.7936 62.3347 46.3887 63.457C45.1511 64.4861 44.4405 66.1516 44.4404 68.6797C44.4404 69.8562 43.8386 70.8576 42.8945 71.6758L42.8906 71.6797C41.9007 72.528 40.5684 72.8799 39.04 72.8799C37.6794 72.8799 36.4817 72.5046 35.5615 71.6553L35.5469 71.6416L35.5332 71.627C34.5459 70.6396 34.2002 69.0355 34.2002 67.1602C34.2002 64.0981 34.9976 61.4076 36.6279 59.1367C38.2272 56.8558 40.3648 55.0954 43.0156 53.8545C45.6603 52.6166 48.4993 52.0001 51.5195 52Z" fill="#34C838" stroke="#2D2D2D" stroke-width="2"/>
</svg>
