<svg width="104" height="164" viewBox="0 0 104 164" fill="none" xmlns="http://www.w3.org/2000/svg">
<rect x="1" y="1" width="102" height="162" fill="#34C838" stroke="#2D2D2D" stroke-width="2"/>
<path d="M103 1V112.5C103 140.39 80.3904 163 52.5 163H1V51.5C1 23.6096 23.6096 1 51.5 1H103Z" fill="#EDEDED" stroke="#2D2D2D" stroke-width="2"/>
<path d="M56.1602 52C57.2534 52 58.2838 52.292 59.2344 52.8623C60.3248 53.5166 60.9199 54.5297 60.9199 55.7998V108.76C60.9199 109.388 60.7599 109.982 60.417 110.507C60.0825 111.018 59.6071 111.412 59.0488 111.711L59.0498 111.712C59.047 111.713 59.0438 111.714 59.041 111.716C59.0366 111.718 59.0327 111.721 59.0283 111.724L59.0273 111.723C58.0169 112.286 56.8934 112.56 55.6797 112.56C54.4567 112.56 53.3085 112.283 52.252 111.724L52.2412 111.718L52.2295 111.712C51.0921 111.072 50.4404 110.062 50.4404 108.76V67.1426L49.4229 68.4229L49.3584 68.5029L49.2803 68.5684C48.9105 68.8765 48.5261 69.1344 48.127 69.334L48.0898 69.3535L48.0518 69.3682C47.6761 69.5184 47.2833 69.5996 46.8799 69.5996C45.7073 69.5996 44.7248 69.1019 44.0078 68.1699L43.9961 68.1553L43.9863 68.1416C43.3415 67.2389 43 66.2378 43 65.1602C43 64.3453 43.2061 63.5677 43.6025 62.8408C43.9698 62.1676 44.4378 61.5942 45.0107 61.1357L53.3066 53.1592C53.6417 52.8269 54.0172 52.5535 54.4326 52.3457L54.459 52.332L54.4863 52.3213C55.0046 52.0992 55.569 52 56.1602 52Z" fill="#34C838" stroke="#2D2D2D" stroke-width="2"/>
</svg>
