<svg width="104" height="164" viewBox="0 0 104 164" fill="none" xmlns="http://www.w3.org/2000/svg">
<rect x="1" y="1" width="102" height="162" fill="#FF5249" stroke="#2D2D2D" stroke-width="2"/>
<path d="M103 1V112.5C103 140.39 80.3904 163 52.5 163H1V51.5C1 23.6096 23.6096 1 51.5 1H103Z" fill="#EDEDED" stroke="#2D2D2D" stroke-width="2"/>
<path d="M52 43C73.5391 43 91 60.4609 91 82C91 103.539 73.5391 121 52 121C30.4609 121 13 103.539 13 82C13 60.4609 30.4609 43 52 43ZM37.6689 104.886C41.8219 107.492 46.7333 109 52 109C66.9117 109 79 96.9117 79 82C79 76.7333 77.492 71.8219 74.8857 67.6689L37.6689 104.886ZM52 55C37.0883 55 25 67.0883 25 82C25 87.3029 26.5285 92.246 29.168 96.417L66.417 59.168C62.246 56.5285 57.3029 55 52 55Z" fill="#FF5249" stroke="#2D2D2D" stroke-width="2"/>
</svg>
