<svg width="104" height="164" viewBox="0 0 104 164" fill="none" xmlns="http://www.w3.org/2000/svg">
<rect x="1" y="1" width="102" height="162" fill="#FF5249" stroke="#2D2D2D" stroke-width="2"/>
<path d="M103 1V112.5C103 140.39 80.3904 163 52.5 163H1V51.5C1 23.6096 23.6096 1 51.5 1H103Z" fill="#EDEDED" stroke="#2D2D2D" stroke-width="2"/>
<path d="M52.0801 57C55.3209 57 58.2177 57.4671 60.7529 58.4248C63.3428 59.4032 65.4064 61.0266 66.9121 63.2852C68.4445 65.5838 69.1602 68.6002 69.1602 72.2402C69.1601 75.7092 68.5544 78.7211 67.2979 81.2383C66.4273 83.0208 65.2951 84.4474 63.8955 85.4873C65.6361 86.4336 67.1356 87.7066 68.3867 89.3027C70.1138 91.5062 70.9199 94.4431 70.9199 98V99.5195C70.9199 103.848 70.072 107.438 68.2871 110.209L68.2881 110.21C66.5794 112.944 64.2327 114.948 61.2695 116.201L61.2617 116.204L61.2549 116.207C58.3487 117.381 55.1522 117.96 51.6797 117.96C48.4985 117.96 45.7055 117.521 43.3242 116.614C40.983 115.722 39.021 114.537 37.4668 113.04C35.94 111.57 34.7898 109.939 34.0381 108.146L34.0322 108.134L34.0273 108.121C33.3476 106.365 33 104.616 33 102.88C33 101.388 33.2878 100.01 34.2471 99.2256L34.2627 99.2129L34.2803 99.2002C35.1848 98.5219 36.4959 98.2803 38 98.2803C38.8986 98.2803 39.6937 98.3495 40.3662 98.5059C41.0124 98.6561 41.611 98.9028 42.0723 99.3057C42.0817 99.3134 42.0913 99.3223 42.1006 99.3301C42.1044 99.3335 42.1085 99.3364 42.1123 99.3398H42.1113C42.9944 100.087 43.3203 101.226 43.3203 102.48C43.3204 103.17 43.4675 103.874 43.7783 104.598C44.1423 105.272 44.6456 105.917 45.3027 106.53C45.9289 107.064 46.7605 107.536 47.8262 107.927C48.9353 108.262 50.2419 108.44 51.7598 108.44C54.9349 108.44 57.051 107.695 58.333 106.413C59.6663 105.08 60.4404 102.859 60.4404 99.5195V98C60.4404 94.9721 59.5873 93.1158 58.1436 92.0967L58.1162 92.0771C56.5764 90.9106 54.4882 90.2803 51.7598 90.2803C50.4972 90.2802 49.4027 89.8275 48.748 88.7637L48.7402 88.75L48.7314 88.7363C48.2251 87.8503 47.96 86.9069 47.96 85.9199C47.96 84.85 48.2138 83.8644 48.748 82.9961C49.3919 81.9498 50.4456 81.4805 51.6797 81.4805C53.2412 81.4805 54.5594 81.2786 55.6523 80.9014C56.6893 80.5115 57.4952 79.8052 58.0811 78.7236C58.6595 77.6556 59 76.0088 59 73.6797C59 70.8732 58.3334 69.1021 57.2422 68.0947L57.2344 68.0879L57.2275 68.0811C56.1457 67.0425 54.4625 66.4404 52 66.4404C50.4695 66.4404 49.2565 66.6201 48.3301 66.9443C47.371 67.2801 46.6581 67.7169 46.1475 68.2275C45.5973 68.7777 45.2317 69.3478 45.0215 69.9365C44.7963 70.5672 44.6797 71.2526 44.6797 72C44.6797 73.2023 44.3289 74.2699 43.5674 75.1191L43.5684 75.1201L43.5664 75.1221C43.5566 75.133 43.5471 75.1444 43.5371 75.1553L43.5361 75.1543C42.6969 76.128 41.2686 76.4404 39.6797 76.4404C38.4185 76.4404 37.3569 76.3328 36.5635 76.0684C35.6609 75.7674 34.9871 75.1607 34.6602 74.2617C34.3899 73.5186 34.2803 72.5861 34.2803 71.5195C34.2803 70.1057 34.5732 68.5838 35.1309 66.9639L35.2441 66.6387C35.8314 65.0232 36.7455 63.5228 37.9707 62.1377L37.9727 62.1357C39.3782 60.5545 41.2544 59.3271 43.5566 58.4287C45.8974 57.4621 48.7505 57 52.0801 57Z" fill="#FF5249" stroke="#2D2D2D" stroke-width="2"/>
</svg>
