<svg width="104" height="164" viewBox="0 0 104 164" fill="none" xmlns="http://www.w3.org/2000/svg">
<rect x="1" y="1" width="102" height="162" fill="#FF5249" stroke="#2D2D2D" stroke-width="2"/>
<path d="M103 1V112.5C103 140.39 80.3904 163 52.5 163H1V51.5C1 23.6096 23.6096 1 51.5 1H103Z" fill="#EDEDED" stroke="#2D2D2D" stroke-width="2"/>
<path d="M64.4004 59C65.0043 59.0001 65.5818 59.1347 66.0947 59.4424C66.5994 59.7452 66.9845 60.1826 67.2676 60.7041H67.2686C67.7911 61.6187 68.04 62.6466 68.04 63.7598C68.04 64.8738 67.7906 65.9168 67.2822 66.8701L67.2754 66.8838L67.2686 66.8965C66.6523 67.9748 65.6417 68.5194 64.4004 68.5195H46.8496L45.875 82.04H51.9199C55.4341 82.04 58.6012 82.5889 61.4043 83.709C64.3248 84.8543 66.6517 86.7805 68.3633 89.4619H68.3623C70.0993 92.1298 70.9199 95.6183 70.9199 99.8398V101.36C70.9199 105.747 70.0712 109.392 68.2852 112.215C66.58 114.941 64.265 116.944 61.3564 118.198L61.3477 118.202C58.5421 119.38 55.4207 119.96 52 119.96C48.0471 119.96 44.6084 119.274 41.7197 117.858L41.7129 117.854C38.9147 116.455 36.7404 114.611 35.2412 112.305L35.2354 112.296C33.753 109.958 33 107.454 33 104.8C33 103.15 33.3909 101.686 34.5391 100.866C35.5105 100.172 36.7518 99.8799 38.1602 99.8799C39.0918 99.8799 39.9167 99.9642 40.6084 100.157C41.2804 100.345 41.8955 100.657 42.335 101.164H42.3369C43.111 102.009 43.4805 103.059 43.4805 104.24C43.4805 105.533 43.8206 106.625 44.4785 107.556C45.2063 108.458 46.1941 109.179 47.4795 109.706C48.7934 110.191 50.2435 110.44 51.8398 110.44C54.6397 110.44 56.7129 109.695 58.1865 108.318C59.6226 106.925 60.4404 104.679 60.4404 101.36V99.8398C60.4404 96.578 59.6251 94.3535 58.1846 92.958C56.706 91.5257 54.6578 90.7598 51.9199 90.7598H40.4004C38.8909 90.7598 37.5298 90.4652 36.7002 89.5527L36.668 89.5176L36.6396 89.4805C36.0055 88.635 35.7198 87.6121 35.7197 86.4805V85.4375L35.7334 85.3555C35.7847 85.0476 35.8354 84.7395 35.8867 84.4316L37.7236 62.7158L37.7256 62.6963L37.7275 62.6758C37.8421 61.7594 38.0524 60.9514 38.4062 60.3145L38.4141 60.2998L38.4229 60.2852C38.9103 59.473 39.6771 59.0001 40.6396 59H64.4004Z" fill="#FF5249" stroke="#2D2D2D" stroke-width="2"/>
</svg>
