<svg width="104" height="164" viewBox="0 0 104 164" fill="none" xmlns="http://www.w3.org/2000/svg">
<rect x="1" y="1" width="102" height="162" fill="#FF5249" stroke="#2D2D2D" stroke-width="2"/>
<path d="M103 1V112.5C103 140.39 80.3904 163 52.5 163H1V51.5C1 23.6096 23.6096 1 51.5 1H103Z" fill="#EDEDED" stroke="#2D2D2D" stroke-width="2"/>
<path d="M70.5382 64.6086C75.8239 69.8943 75.8239 78.4645 70.5382 83.7502L44.6544 109.633L52.5773 117.556L50.3947 117.713L25.5851 119.494L24.4337 119.577L24.5167 118.425L26.298 93.6164L26.4542 91.4328L34.3771 99.3557L69.8312 63.9016L70.5382 64.6086ZM79.4835 44.5851L77.7023 69.3947L77.545 71.5773L69.6222 63.6545L34.8761 98.4016L34.1691 99.1086L33.462 98.4016C28.1765 93.1159 28.1765 84.5466 33.462 79.2609L59.3448 53.3771L51.422 45.4543L53.6056 45.298L78.4142 43.5168L79.5665 43.4338L79.4835 44.5851Z" fill="#FF5249" stroke="#2D2D2D" stroke-width="2"/>
</svg>
