<svg width="104" height="164" viewBox="0 0 104 164" fill="none" xmlns="http://www.w3.org/2000/svg">
<rect x="1" y="1" width="102" height="162" fill="#FF5249" stroke="#2D2D2D" stroke-width="2"/>
<path d="M103 1V112.5C103 140.39 80.3904 163 52.5 163H1V51.5C1 23.6096 23.6096 1 51.5 1H103Z" fill="#EDEDED" stroke="#2D2D2D" stroke-width="2"/>
<path d="M51.9199 52C55.3953 52 58.5706 52.6067 61.4297 53.8389L61.9795 54.084C64.6873 55.3531 66.8252 57.3065 68.376 59.9238C70.1015 62.7453 70.9199 66.4106 70.9199 70.8398V94.1201C70.9199 98.5455 70.1023 102.208 68.3799 105.028L68.3809 105.029C66.7274 107.823 64.4046 109.86 61.4355 111.117L61.4365 111.118C58.5757 112.352 55.3979 112.96 51.9199 112.96C48.4421 112.96 45.265 112.352 42.4043 111.118C39.488 109.86 37.1706 107.825 35.4668 105.042L35.4629 105.036L35.459 105.029C33.7905 102.21 33 98.5475 33 94.1201V70.8398C33 66.4125 33.7905 62.7499 35.459 59.9307L35.4629 59.9238L35.4668 59.918C37.1706 57.1351 39.488 55.0998 42.4043 53.8418C45.265 52.6078 48.4421 52 51.9199 52ZM51.9199 61.5195C49.1306 61.5195 47.0979 62.3107 45.6787 63.7754L45.667 63.7871C44.2777 65.1765 43.4805 67.4529 43.4805 70.8398V94.1201C43.4805 97.5004 44.2747 99.8124 45.6738 101.26C47.091 102.673 49.1258 103.44 51.9199 103.44C54.7185 103.44 56.7553 102.67 58.1729 101.253C59.6207 99.8051 60.4404 97.4963 60.4404 94.1201V70.8398C60.4404 67.4606 59.6199 65.1883 58.1846 63.7979L58.1729 63.7871L58.1621 63.7754C56.7429 62.3104 54.7095 61.5195 51.9199 61.5195ZM52 78.1602C53.2224 78.1602 54.2927 78.551 55.0967 79.4033C55.9632 80.2093 56.3603 81.2875 56.3604 82.5195C56.3604 83.7261 55.9485 84.7971 55.1348 85.6787L55.1338 85.6777C54.3259 86.5575 53.241 86.96 52 86.96C50.7561 86.96 49.6632 86.5577 48.8125 85.707L48.7988 85.6934L48.7852 85.6787C47.9714 84.7971 47.5596 83.7261 47.5596 82.5195C47.5597 81.2926 47.9533 80.218 48.8125 79.4131L48.9756 79.2588C49.8011 78.5137 50.8339 78.1602 52 78.1602Z" fill="#FF5249" stroke="#2D2D2D" stroke-width="2"/>
</svg>
