<svg width="104" height="164" viewBox="0 0 104 164" fill="none" xmlns="http://www.w3.org/2000/svg">
<rect x="1" y="1" width="102" height="162" fill="#FF5249" stroke="#2D2D2D" stroke-width="2"/>
<path d="M103 1V112.5C103 140.39 80.3904 163 52.5 163H1V51.5C1 23.6096 23.6096 1 51.5 1H103Z" fill="#EDEDED" stroke="#2D2D2D" stroke-width="2"/>
<path d="M52.4004 52C55.4664 52 58.1722 52.4364 60.4951 53.3379H60.4961C62.8446 54.1766 64.8144 55.338 66.374 56.8398C67.9059 58.3151 69.0563 59.9764 69.8066 61.8232C70.543 63.6358 70.9199 65.4439 70.9199 67.2402C70.9199 68.7315 70.5834 70.0696 69.6006 70.8887L69.5596 70.9199C68.6597 71.5947 67.3809 71.8398 65.9199 71.8398C64.6702 71.8398 63.5089 71.6009 62.4541 71.1045L62.4326 71.0947L62.4121 71.084C61.1077 70.3934 60.5195 69.1496 60.5195 67.6396C60.5195 66.3503 60.1567 65.3344 59.4746 64.5244L59.459 64.5049C58.7263 63.589 57.7269 62.8575 56.4229 62.3262L56.4102 62.3213C55.1622 61.7933 53.7507 61.5195 52.1602 61.5195C49.3129 61.5195 47.2205 62.3137 45.7471 63.7871L45.7412 63.793L45.7354 63.7979C44.3001 65.1883 43.4805 67.4606 43.4805 70.8398V78.4805C44.5339 77.6065 45.7147 76.9305 47.0205 76.459L47.0283 76.4561C49.1128 75.7237 51.3054 75.3604 53.5996 75.3604C56.7517 75.3604 59.631 75.886 62.2217 76.9561H62.2207C64.8775 77.9998 66.9817 79.8232 68.5234 82.3828C70.1576 84.9508 70.9199 88.4178 70.9199 92.6797V94.1201C70.9199 98.5455 70.1023 102.208 68.3799 105.028L68.3809 105.029C66.7294 107.82 64.435 109.859 61.5156 111.118C58.6549 112.352 55.4778 112.96 52 112.96C48.5222 112.96 45.3451 112.352 42.4844 111.118C39.5681 109.86 37.2507 107.825 35.5469 105.042C33.8191 102.22 33 98.5523 33 94.1201V70.8398C33 66.4077 33.8191 62.7402 35.5469 59.918L35.5508 59.9111L35.5547 59.9053C37.3138 57.1247 39.6841 55.0938 42.6504 53.8389C45.5642 52.6061 48.82 52 52.4004 52ZM51.9199 84.1602C49.2665 84.1602 47.2141 84.8327 45.6729 86.0938L45.6709 86.0957C44.3027 87.2073 43.4805 89.24 43.4805 92.5195V94.5996C43.4805 98.0396 44.2782 100.338 45.6611 101.726C47.1361 103.152 49.206 103.92 52 103.92C54.7986 103.92 56.8354 103.15 58.2529 101.732C59.6398 100.345 60.4404 98.0449 60.4404 94.5996V93.2402C60.4404 89.6653 59.6303 87.4323 58.29 86.2217L58.2764 86.21C56.8643 84.8892 54.7947 84.1602 51.9199 84.1602Z" fill="#FF5249" stroke="#2D2D2D" stroke-width="2"/>
</svg>
