<svg width="104" height="164" viewBox="0 0 104 164" fill="none" xmlns="http://www.w3.org/2000/svg">
<rect x="1" y="1" width="102" height="162" fill="#141414" stroke="#2D2D2D" stroke-width="2"/>
<path d="M103 1V112.5C103 140.39 80.3904 163 52.5 163H1V51.5C1 23.6096 23.6096 1 51.5 1H103Z" fill="#EDEDED" stroke="#2D2D2D" stroke-width="2"/>
<rect x="51" y="1" width="52" height="82" fill="#53A5DC" stroke="#2D2D2D" stroke-width="2"/>
<path d="M103 81V112C103 140.167 80.1665 163 52 163H51V81H103Z" fill="#34C838" stroke="#2D2D2D" stroke-width="2"/>
<path d="M53 1V83H1V52C1 23.8335 23.8335 1 52 1H53Z" fill="#FF5249" stroke="#2D2D2D" stroke-width="2"/>
<rect x="1" y="81" width="52" height="82" fill="#F4D84B" stroke="#2D2D2D" stroke-width="2"/>
<path d="M71.0244 65.0947C76.3101 70.3804 76.3101 78.9506 71.0244 84.2363L45.1406 110.119L53.0635 118.042L50.8809 118.199L26.0713 119.98L24.9199 120.063L25.0029 118.911L26.7842 94.1025L26.9404 91.9189L34.8633 99.8418L70.3174 64.3877L71.0244 65.0947ZM79.9697 45.0713L78.1885 69.8809L78.0312 72.0635L70.1084 64.1406L35.3623 98.8877L34.6553 99.5947L33.9482 98.8877C28.6627 93.602 28.6627 85.0327 33.9482 79.7471L59.8311 53.8633L51.9082 45.9404L54.0918 45.7842L78.9004 44.0029L80.0527 43.9199L79.9697 45.0713Z" fill="#141414" stroke="#2D2D2D" stroke-width="2"/>
</svg>
