<svg width="104" height="164" viewBox="0 0 104 164" fill="none" xmlns="http://www.w3.org/2000/svg">
<rect x="1" y="1" width="102" height="162" fill="#141414" stroke="#2D2D2D" stroke-width="2"/>
<path d="M103 1V112.5C103 140.39 80.3904 163 52.5 163H1V51.5C1 23.6096 23.6096 1 51.5 1H103Z" fill="#EDEDED" stroke="#2D2D2D" stroke-width="2"/>
<path d="M70.5382 64.6086C75.8239 69.8943 75.8239 78.4645 70.5382 83.7502L44.6544 109.633L52.5773 117.556L50.3947 117.713L25.5851 119.494L24.4337 119.577L24.5167 118.425L26.298 93.6164L26.4542 91.4328L34.3771 99.3557L69.8312 63.9016L70.5382 64.6086ZM79.4835 44.5851L77.7023 69.3947L77.545 71.5773L69.6222 63.6545L34.8761 98.4016L34.1691 99.1086L33.462 98.4016C28.1765 93.1159 28.1765 84.5466 33.462 79.2609L59.3448 53.3771L51.422 45.4543L53.6056 45.298L78.4142 43.5168L79.5665 43.4338L79.4835 44.5851Z" fill="#141414" stroke="#2D2D2D" stroke-width="2"/>
<path d="M87.165 11C87.5123 11 87.8439 11.0878 88.1475 11.2158C88.4824 11.3572 88.7822 11.5582 89.0381 11.8174C89.3905 12.1744 89.5693 12.6302 89.5693 13.1221C89.5693 13.4199 89.4791 13.7052 89.3916 13.9268L89.376 13.9668L89.3564 14.0049L86.6143 19.5186C86.6808 19.4737 86.7504 19.4333 86.8213 19.3975L86.8428 19.3877C87.2916 19.1738 87.7729 19.0713 88.2725 19.0713C88.7711 19.0713 89.2528 19.1729 89.6963 19.3975H89.6953C89.9833 19.5386 90.2493 19.7523 90.4385 20.0566C90.631 20.3666 90.704 20.7055 90.7041 21.0283V23.8047H91.0547C91.3705 23.8047 91.7003 23.8774 92.002 24.0654C92.2789 24.2381 92.4764 24.4761 92.6152 24.7324H92.6172C92.8788 25.174 93 25.6636 93 26.1729C92.9999 26.7163 92.8319 27.2196 92.5303 27.6641L92.5293 27.6631C92.2257 28.1186 91.7365 28.5126 91.0547 28.5127H90.7041V31.042C90.7041 31.3696 90.6207 31.6992 90.4297 31.9951C90.2477 32.277 89.9992 32.4779 89.7393 32.6211L89.7402 32.623C89.2885 32.8804 88.7908 33 88.2725 33C87.7537 33 87.2567 32.8798 86.7998 32.6348L86.7891 32.6289L86.7773 32.623C86.2037 32.2961 85.8408 31.7409 85.8408 31.042V28.5127H80.2227C79.7049 28.5127 79.1851 28.3514 78.7812 27.9424L78.7646 27.9248L78.749 27.9072C78.3703 27.4852 78.2227 26.9648 78.2227 26.4463C78.2227 26.2905 78.2386 26.1345 78.2637 25.9824L78.2764 25.9062L78.2998 25.832C78.3506 25.6777 78.4156 25.5274 78.4961 25.3838L85 12.3467L85.0098 12.3271L85.0205 12.3076C85.2393 11.9136 85.5482 11.5447 85.9834 11.3154V11.3135C86.3437 11.117 86.7416 11 87.165 11ZM72.2676 15.7881C72.8213 15.7881 73.3725 15.9479 73.8125 16.3564C74.179 16.6968 74.4559 17.1652 74.4561 17.7451V19.8916H76.5625C77.177 19.8916 77.6637 20.1982 78.0049 20.6064C78.3716 21.0454 78.5351 21.5725 78.5352 22.123C78.5352 22.6736 78.3716 23.2007 78.0049 23.6396L77.9922 23.6553L77.9795 23.6699C77.6274 24.059 77.146 24.3271 76.5625 24.3271H74.4561V26.501C74.456 27.0802 74.2088 27.5842 73.7764 27.9492L73.7568 27.9658L73.7363 27.9814C73.2971 28.3149 72.7748 28.4306 72.2676 28.4307C71.7654 28.4307 71.2845 28.3006 70.8574 28.0225L70.8223 28L70.7881 27.9736C70.3347 27.6203 70.0518 27.1115 70.0518 26.501V24.3271H67.918C67.3325 24.327 66.8299 24.0703 66.4707 23.6338L66.4424 23.5996L66.418 23.5625C66.1206 23.1274 66 22.6287 66 22.123C66 21.6174 66.1206 21.1187 66.418 20.6836L66.4316 20.6631L66.4463 20.6426C66.7931 20.1859 67.3004 19.8917 67.918 19.8916H70.0518V17.7451C70.0519 17.1343 70.3676 16.6596 70.752 16.3301L70.7656 16.3174L70.7803 16.3066C71.2105 15.9642 71.7187 15.7881 72.2676 15.7881ZM84.4844 23.8047H85.8408V21.0752L84.4844 23.8047Z" fill="#141414" stroke="#2D2D2D" stroke-width="2"/>
<path d="M16.835 153C16.4877 153 16.1561 152.912 15.8525 152.784C15.5176 152.643 15.2178 152.442 14.9619 152.183C14.6095 151.826 14.4307 151.37 14.4307 150.878C14.4307 150.58 14.5209 150.295 14.6084 150.073L14.624 150.033L14.6436 149.995L17.3857 144.481C17.3192 144.526 17.2496 144.567 17.1787 144.603L17.1572 144.612C16.7084 144.826 16.2271 144.929 15.7275 144.929C15.2289 144.929 14.7472 144.827 14.3037 144.603H14.3047C14.0167 144.461 13.7507 144.248 13.5615 143.943C13.369 143.633 13.296 143.295 13.2959 142.972V140.195H12.9453C12.6295 140.195 12.2997 140.123 11.998 139.935C11.7211 139.762 11.5236 139.524 11.3848 139.268H11.3828C11.1212 138.826 11 138.336 11 137.827C11.0001 137.284 11.1681 136.78 11.4697 136.336L11.4707 136.337C11.7743 135.881 12.2635 135.487 12.9453 135.487H13.2959V132.958C13.2959 132.63 13.3793 132.301 13.5703 132.005C13.7523 131.723 14.0008 131.522 14.2607 131.379L14.2598 131.377C14.7115 131.12 15.2092 131 15.7275 131C16.2463 131 16.7433 131.12 17.2002 131.365L17.2109 131.371L17.2227 131.377C17.7963 131.704 18.1592 132.259 18.1592 132.958V135.487H23.7773C24.2951 135.487 24.8149 135.649 25.2188 136.058L25.2354 136.075L25.251 136.093C25.6297 136.515 25.7773 137.035 25.7773 137.554C25.7773 137.709 25.7614 137.866 25.7363 138.018L25.7236 138.094L25.7002 138.168C25.6494 138.322 25.5844 138.473 25.5039 138.616L19 151.653L18.9902 151.673L18.9795 151.692C18.7607 152.086 18.4518 152.455 18.0166 152.685V152.687C17.6563 152.883 17.2584 153 16.835 153ZM31.7324 148.212C31.1787 148.212 30.6275 148.052 30.1875 147.644C29.821 147.303 29.5441 146.835 29.5439 146.255V144.108H27.4375C26.823 144.108 26.3363 143.802 25.9951 143.394C25.6284 142.955 25.4649 142.428 25.4648 141.877C25.4648 141.326 25.6284 140.799 25.9951 140.36L26.0078 140.345L26.0205 140.33C26.3726 139.941 26.854 139.673 27.4375 139.673H29.5439V137.499C29.544 136.92 29.7912 136.416 30.2236 136.051L30.2432 136.034L30.2637 136.019C30.7029 135.685 31.2252 135.569 31.7324 135.569C32.2346 135.569 32.7155 135.699 33.1426 135.978L33.1777 136L33.2119 136.026C33.6653 136.38 33.9482 136.888 33.9482 137.499V139.673H36.082C36.6675 139.673 37.1701 139.93 37.5293 140.366L37.5576 140.4L37.582 140.438C37.8794 140.873 38 141.371 38 141.877C38 142.383 37.8794 142.881 37.582 143.316L37.5684 143.337L37.5537 143.357C37.2069 143.814 36.6996 144.108 36.082 144.108H33.9482V146.255C33.9481 146.866 33.6324 147.34 33.248 147.67L33.2344 147.683L33.2197 147.693C32.7895 148.036 32.2813 148.212 31.7324 148.212ZM19.5156 140.195H18.1592V142.925L19.5156 140.195Z" fill="#141414" stroke="#2D2D2D" stroke-width="2"/>
</svg>
