<svg width="104" height="164" viewBox="0 0 104 164" fill="none" xmlns="http://www.w3.org/2000/svg">
<rect x="1" y="1" width="102" height="162" fill="#141414" stroke="#2D2D2D" stroke-width="2"/>
<path d="M103 1V112.5C103 140.39 80.3904 163 52.5 163H1V51.5C1 23.6096 23.6096 1 51.5 1H103Z" fill="#EDEDED" stroke="#2D2D2D" stroke-width="2"/>
<path d="M77.0399 51.08C80.5153 51.08 83.6906 51.6866 86.5497 52.9188L87.0995 53.1639C89.8073 54.4331 91.9452 56.3864 93.496 59.0038C95.2215 61.8252 96.0399 65.4905 96.0399 69.9198V93.2001C96.0399 97.6255 95.2223 101.288 93.4999 104.108L93.5009 104.109C91.8474 106.903 89.5246 108.94 86.5555 110.197L86.5565 110.198C83.6957 111.432 80.5179 112.04 77.0399 112.04C73.5621 112.04 70.385 111.432 67.5243 110.198C64.608 108.94 62.2906 106.905 60.5868 104.122L60.5829 104.116L60.579 104.109C58.9105 101.29 58.12 97.6274 58.12 93.2001V69.9198C58.12 65.4924 58.9105 61.8299 60.579 59.0106L60.5829 59.0038L60.5868 58.9979C62.2906 56.2151 64.608 54.1798 67.5243 52.9218C70.385 51.6878 73.5621 51.08 77.0399 51.08ZM77.0399 60.5995C74.2506 60.5995 72.2179 61.3907 70.7987 62.8553L70.787 62.8671C69.3977 64.2564 68.6005 66.5329 68.6005 69.9198V93.2001C68.6005 96.5804 69.3947 98.8924 70.7938 100.34C72.211 101.753 74.2458 102.52 77.0399 102.52C79.8385 102.52 81.8753 101.75 83.2928 100.333C84.7407 98.885 85.5604 96.5763 85.5604 93.2001V69.9198C85.5604 66.5406 84.7398 64.2682 83.3046 62.8778L83.2928 62.8671L83.2821 62.8553C81.8629 61.3904 79.8295 60.5995 77.0399 60.5995ZM77.12 77.2401C78.3424 77.2401 79.4127 77.631 80.2167 78.4833C81.0832 79.2892 81.4802 80.3675 81.4803 81.5995C81.4803 82.806 81.0685 83.8771 80.2548 84.7587L80.2538 84.7577C79.4459 85.6374 78.361 86.0399 77.12 86.0399C75.8761 86.0399 74.7832 85.6377 73.9325 84.787L73.9188 84.7733L73.9052 84.7587C73.0914 83.8771 72.6796 82.806 72.6796 81.5995C72.6797 80.3726 73.0733 79.2979 73.9325 78.493L74.0956 78.3387C74.9211 77.5937 75.9539 77.2401 77.12 77.2401Z" fill="black" stroke="#2D2D2D" stroke-width="2"/>
<path d="M50.3602 51C51.4534 51 52.4838 51.292 53.4344 51.8623C54.5248 52.5166 55.1199 53.5297 55.1199 54.7998V107.76C55.1199 108.388 54.9599 108.982 54.617 109.507C54.2825 110.018 53.8071 110.412 53.2488 110.711L53.2498 110.712C53.247 110.713 53.2438 110.714 53.241 110.716C53.2367 110.718 53.2327 110.721 53.2283 110.724L53.2274 110.723C52.2169 111.286 51.0934 111.56 49.8797 111.56C48.6568 111.56 47.5085 111.283 46.452 110.724L46.4412 110.718L46.4295 110.712C45.2921 110.072 44.6404 109.062 44.6404 107.76V66.1426L43.6229 67.4229L43.5584 67.5029L43.4803 67.5684C43.1105 67.8765 42.7261 68.1344 42.327 68.334L42.2899 68.3535L42.2518 68.3682C41.8762 68.5184 41.4833 68.5996 41.0799 68.5996C39.9073 68.5996 38.9248 68.1019 38.2078 67.1699L38.1961 67.1553L38.1863 67.1416C37.5415 66.2389 37.2 65.2378 37.2 64.1602C37.2 63.3453 37.4061 62.5677 37.8026 61.8408C38.1698 61.1676 38.6378 60.5942 39.2108 60.1357L47.5067 52.1592C47.8417 51.8269 48.2172 51.5535 48.6326 51.3457L48.659 51.332L48.6863 51.3213C49.2046 51.0992 49.769 51 50.3602 51Z" fill="black" stroke="#2D2D2D" stroke-width="2"/>
<path d="M24.5996 71.24C25.8565 71.24 26.9716 71.5903 27.8359 72.3826C28.6267 73.1075 29.1201 73.9986 29.1201 75.0398V83.24H37.3203C38.4242 83.2401 39.3514 83.7699 40.083 84.6345C40.8402 85.5294 41.2001 86.6192 41.2002 87.8396C41.2002 89.0602 40.8403 90.1506 40.083 91.0457L40.0703 91.0613L40.0576 91.0759C39.3154 91.8856 38.3935 92.36 37.3203 92.3601H29.1201V100.64C29.12 101.751 28.6569 102.694 27.7998 103.408L27.7803 103.425L27.7598 103.44C26.897 104.087 25.8109 104.36 24.5996 104.36C23.4643 104.36 22.4201 104.073 21.499 103.481L21.4639 103.459L21.4307 103.432C20.5178 102.73 20.0001 101.783 20 100.64V92.3601H11.7197C10.6092 92.36 9.66638 91.8969 8.95215 91.0398L8.92285 91.0056L8.89746 90.9695C8.27998 90.0776 8 89.0146 8 87.8396C8.00006 86.6648 8.2801 85.6025 8.89746 84.7107L8.91211 84.6902L8.92773 84.6707C9.62996 83.7578 10.5775 83.2401 11.7197 83.24H20V75.0398C20.0001 73.9672 20.5511 73.0699 21.3945 72.3562L21.4082 72.3445L21.4219 72.3337C22.3467 71.6071 23.4184 71.2401 24.5996 71.24Z" fill="black" stroke="#2D2D2D" stroke-width="2"/>
</svg>
