<svg width="104" height="164" viewBox="0 0 104 164" fill="none" xmlns="http://www.w3.org/2000/svg">
<rect x="1" y="1" width="102" height="162" fill="#141414" stroke="#2D2D2D" stroke-width="2"/>
<path d="M103 1V112.5C103 140.39 80.3904 163 52.5 163H1V51.5C1 23.6096 23.6096 1 51.5 1H103Z" fill="#EDEDED" stroke="#2D2D2D" stroke-width="2"/>
<path d="M70.7091 52C73.7751 52 76.4809 52.4364 78.8038 53.3379H78.8048C81.1533 54.1766 83.1232 55.338 84.6827 56.8398C86.2147 58.3151 87.365 59.9764 88.1154 61.8232C88.8517 63.6358 89.2286 65.4439 89.2286 67.2402C89.2286 68.7315 88.8921 70.0696 87.9093 70.8887L87.8683 70.9199C86.9685 71.5947 85.6896 71.8398 84.2286 71.8398C82.9789 71.8398 81.8176 71.6009 80.7628 71.1045L80.7413 71.0947L80.7208 71.084C79.4164 70.3934 78.8282 69.1496 78.8282 67.6396C78.8282 66.3503 78.4654 65.3344 77.7833 64.5244L77.7677 64.5049C77.035 63.589 76.0356 62.8575 74.7316 62.3262L74.7189 62.3213C73.4709 61.7933 72.0594 61.5195 70.4689 61.5195C67.6216 61.5195 65.5292 62.3137 64.0558 63.7871L64.0499 63.793L64.0441 63.7979C62.6088 65.1883 61.7892 67.4606 61.7892 70.8398V78.4805C62.8426 77.6065 64.0234 76.9305 65.3292 76.459L65.337 76.4561C67.4215 75.7237 69.6141 75.3604 71.9083 75.3604C75.0604 75.3604 77.9397 75.886 80.5304 76.9561H80.5294C83.1862 77.9998 85.2904 79.8232 86.8322 82.3828C88.4663 84.9508 89.2286 88.4178 89.2286 92.6797V94.1201C89.2286 98.5455 88.411 102.208 86.6886 105.028L86.6896 105.029C85.0381 107.82 82.7437 109.859 79.8243 111.118C76.9636 112.352 73.7865 112.96 70.3087 112.96C66.8309 112.96 63.6538 112.352 60.7931 111.118C57.8768 109.86 55.5594 107.825 53.8556 105.042C52.1278 102.22 51.3087 98.5523 51.3087 94.1201V70.8398C51.3087 66.4077 52.1278 62.7402 53.8556 59.918L53.8595 59.9111L53.8634 59.9053C55.6225 57.1247 57.9928 55.0938 60.9591 53.8389C63.8729 52.6061 67.1287 52 70.7091 52ZM70.2286 84.1602C67.5752 84.1602 65.5228 84.8327 63.9816 86.0938L63.9796 86.0957C62.6115 87.2073 61.7893 89.24 61.7892 92.5195V94.5996C61.7892 98.0396 62.587 100.338 63.9698 101.726C65.4448 103.152 67.5147 103.92 70.3087 103.92C73.1073 103.92 75.1441 103.15 76.5616 101.732C77.9485 100.345 78.7491 98.0449 78.7491 94.5996V93.2402C78.7491 89.6653 77.939 87.4323 76.5988 86.2217L76.5851 86.21C75.173 84.8892 73.1034 84.1602 70.2286 84.1602Z" fill="black" stroke="#2D2D2D" stroke-width="2"/>
<path d="M30.5996 72.16C31.8565 72.16 32.9716 72.5103 33.8359 73.3026C34.6267 74.0274 35.1201 74.9186 35.1201 75.9598V84.16H43.3203C44.4242 84.1601 45.3514 84.6899 46.083 85.5545C46.8402 86.4494 47.2001 87.5392 47.2002 88.7596C47.2002 89.9802 46.8403 91.0706 46.083 91.9656L46.0703 91.9813L46.0576 91.9959C45.3154 92.8056 44.3935 93.28 43.3203 93.2801H35.1201V101.56C35.12 102.671 34.6569 103.614 33.7998 104.328L33.7803 104.345L33.7598 104.36C32.897 105.007 31.8109 105.28 30.5996 105.28C29.4643 105.28 28.4201 104.993 27.499 104.401L27.4639 104.379L27.4307 104.352C26.5178 103.65 26.0001 102.703 26 101.56V93.2801H17.7197C16.6092 93.28 15.6664 92.8169 14.9521 91.9598L14.9229 91.9256L14.8975 91.8895C14.28 90.9975 14 89.9345 14 88.7596C14.0001 87.5848 14.2801 86.5225 14.8975 85.6307L14.9121 85.6102L14.9277 85.5906C15.63 84.6777 16.5775 84.1601 17.7197 84.16H26V75.9598C26.0001 74.8872 26.5511 73.9899 27.3945 73.2762L27.4082 73.2645L27.4219 73.2537C28.3467 72.5271 29.4184 72.1601 30.5996 72.16Z" fill="black" stroke="#2D2D2D" stroke-width="2"/>
</svg>
