<svg width="104" height="164" viewBox="0 0 104 164" fill="none" xmlns="http://www.w3.org/2000/svg">
<rect x="1" y="1" width="102" height="162" fill="#F4D84B" stroke="#2D2D2D" stroke-width="2"/>
<path d="M103 1V112.5C103 140.39 80.3904 163 52.5 163H1V51.5C1 23.6096 23.6096 1 51.5 1H103Z" fill="#EDEDED" stroke="#2D2D2D" stroke-width="2"/>
<path d="M31.6233 48.7469C39.5407 43.8953 48.9295 42.0278 58.1008 43.4803C67.2724 44.933 75.6248 49.6107 81.6555 56.6717C87.6862 63.7328 91.0002 72.7139 91.0002 81.9998V82.9998H78.9309V81.9998C78.9309 75.5879 76.642 69.3864 72.4778 64.5106C68.3134 59.6348 62.5453 56.4043 56.2122 55.4012C49.8795 54.3984 43.3968 55.6881 37.9299 59.0379C32.4628 62.3882 28.3704 67.5803 26.3889 73.6785C24.4076 79.7767 24.6666 86.3816 27.1204 92.3055C29.5742 98.2295 34.0614 103.084 39.7747 105.995C45.4878 108.906 52.0526 109.682 58.2874 108.185C63.9315 106.83 68.9673 103.69 72.6672 99.2586L66.9778 95.1248L65.2073 93.8387L67.3381 93.3426L86.6643 88.8426L87.7893 88.5809L87.8879 89.7313L89.5803 109.503L89.7668 111.683L87.9963 110.397L82.4485 106.366C77.0472 113.116 69.5443 117.896 61.1047 119.923C52.0754 122.09 42.569 120.964 34.2952 116.749C26.0213 112.533 19.5226 105.504 15.969 96.9246C12.4155 88.3456 12.0401 78.7804 14.9094 69.949C17.779 61.1175 23.7056 53.5988 31.6233 48.7469Z" fill="#F4D84B" stroke="#2D2D2D" stroke-width="2"/>
</svg>
