<svg width="104" height="164" viewBox="0 0 104 164" fill="none" xmlns="http://www.w3.org/2000/svg">
<rect x="1" y="1" width="102" height="162" fill="#F4D84B" stroke="#2D2D2D" stroke-width="2"/>
<path d="M103 1V112.5C103 140.39 80.3904 163 52.5 163H1V51.5C1 23.6096 23.6096 1 51.5 1H103Z" fill="#EDEDED" stroke="#2D2D2D" stroke-width="2"/>
<path d="M52 54C55.2378 54 58.1325 54.466 60.666 55.4219C63.3021 56.3961 65.3935 58.0139 66.9023 60.2705L67.1904 60.709C68.5827 62.9401 69.2402 65.7546 69.2402 69.0801C69.2402 72.6188 68.5223 75.5584 66.9854 77.8047C65.9263 79.3525 64.6404 80.5912 63.1338 81.5137C65.1943 82.6229 66.9085 84.1843 68.2637 86.1924L68.5908 86.6943C70.1727 89.2523 70.9199 92.5547 70.9199 96.5195V97.4805C70.9199 101.553 70.0942 104.959 68.3594 107.621L68.3604 107.622C66.6996 110.199 64.4035 112.09 61.501 113.285L61.4854 113.291C58.633 114.41 55.4664 114.96 52 114.96C48.5336 114.96 45.367 114.41 42.5146 113.291L42.499 113.285C39.5991 112.091 37.2809 110.204 35.5684 107.635L35.5625 107.626C33.8257 104.963 33.0001 101.555 33 97.4805V96.5195C33.0001 92.285 33.8791 88.8048 35.7451 86.1807L35.7471 86.1768C37.1722 84.1902 38.9044 82.6383 40.9365 81.5312C39.392 80.6081 38.0819 79.3645 37.0146 77.8047L37.0098 77.7969L37.0049 77.79C35.5288 75.5464 34.8399 72.6124 34.8398 69.0801C34.8398 65.5394 35.5584 62.5794 37.0879 60.2852L37.0928 60.2783L37.0977 60.2705C38.6548 58.0214 40.7395 56.4021 43.3262 55.4248L43.333 55.4219C45.9155 54.4675 48.8095 54 52 54ZM52 86.1602C49.2621 86.1602 47.2139 86.926 45.7354 88.3584L45.7295 88.3643L45.7236 88.3691C44.2961 89.7074 43.4805 91.8952 43.4805 95.1602V96.5996C43.4805 100.029 44.2987 102.322 45.7246 103.711C47.261 105.154 49.3435 105.92 52.0801 105.92C54.8696 105.92 56.9021 105.129 58.3213 103.664C59.7255 102.215 60.5195 99.9251 60.5195 96.5996V95.1602C60.5195 91.8952 59.7039 89.7074 58.2764 88.3691L58.2646 88.3584L58.2529 88.3467C56.8354 86.9293 54.7985 86.1602 52 86.1602ZM52 63.04C49.6628 63.04 47.9516 63.6338 46.7441 64.707L46.7422 64.709C45.662 65.6647 45 67.349 45 70.04C45 72.7738 45.6579 74.5177 46.7432 75.5303C47.9498 76.5512 49.662 77.1201 52 77.1201C54.4084 77.1201 56.1117 76.5436 57.2559 75.5322L57.4639 75.334C58.4778 74.2981 59.0801 72.6058 59.0801 70.04C59.0801 67.3594 58.3965 65.6802 57.2715 64.7217L57.2422 64.6943C56.0977 63.6379 54.3995 63.04 52 63.04Z" fill="#F4D84B" stroke="#2D2D2D" stroke-width="2"/>
</svg>
