<svg width="104" height="164" viewBox="0 0 104 164" fill="none" xmlns="http://www.w3.org/2000/svg">
<rect x="1" y="1" width="102" height="162" fill="#F4D84B" stroke="#2D2D2D" stroke-width="2"/>
<path d="M103 1V112.5C103 140.39 80.3904 163 52.5 163H1V51.5C1 23.6096 23.6096 1 51.5 1H103Z" fill="#EDEDED" stroke="#2D2D2D" stroke-width="2"/>
<path d="M66.1602 52L66.3652 52.0049C67.3875 52.0494 68.3477 52.4252 69.2314 53.0732H69.2305C70.2016 53.7475 70.9198 54.6462 70.9199 55.7998V64.04C70.9199 64.8351 70.7234 65.7272 70.3828 66.6924L70.3799 66.7021L70.376 66.7109C70.0448 67.5941 69.6843 68.4264 69.2939 69.207L69.2891 69.2188L68.4004 68.7598L69.2881 69.2188L47.7686 110.898L47.7607 110.915L47.752 110.931C47.048 112.182 45.8012 112.72 44.3203 112.72C43.3393 112.72 42.367 112.536 41.4092 112.177L41.3721 112.163L41.3369 112.146C40.4119 111.715 39.6252 111.12 38.9922 110.36L38.9756 110.341L38.96 110.32C38.3501 109.507 38.04 108.576 38.04 107.56C38.0401 106.897 38.2228 106.22 38.5293 105.546L38.5439 105.514L38.5615 105.482L60.4404 65.2256V61.5195H43.4805V68.04C43.4805 69.3054 42.7294 70.2539 41.627 70.9023L41.626 70.9014C40.6018 71.5351 39.436 71.8398 38.1602 71.8398C36.8746 71.8398 35.6997 71.5313 34.6699 70.8877L34.6572 70.8799L34.6455 70.8721C33.6318 70.1963 33 69.2451 33 68.04V55.7998C33.0001 54.6964 33.6091 53.7953 34.502 53.0938L34.5156 53.083L34.5283 53.0732C35.4936 52.3653 36.5797 52 37.7598 52H66.1602Z" fill="#F4D84B" stroke="#2D2D2D" stroke-width="2"/>
</svg>
