<svg width="84" height="84" viewBox="0 0 84 84" fill="none" xmlns="http://www.w3.org/2000/svg">
<path d="M82 42C82 53.0457 73.0457 62 62 62C50.9543 62 42 53.0457 42 42C42 30.9543 50.9543 22 62 22C73.0457 22 82 30.9543 82 42ZM48 42C48 49.732 54.268 56 62 56C69.732 56 76 49.732 76 42C76 34.268 69.732 28 62 28C54.268 28 48 34.268 48 42Z" fill="#FF5249"/>
<path d="M70.2842 70.2843C62.4737 78.0948 49.8104 78.0948 42 70.2843C34.1895 62.4738 34.1895 49.8105 42 42C49.8105 34.1895 62.4737 34.1895 70.2842 42C78.0947 49.8105 78.0947 62.4738 70.2842 70.2843ZM46.2426 46.2426C40.7753 51.71 40.7753 60.5743 46.2426 66.0416C51.7099 71.509 60.5742 71.509 66.0416 66.0416C71.5089 60.5743 71.5089 51.71 66.0416 46.2426C60.5742 40.7753 51.7099 40.7753 46.2426 46.2426Z" fill="#53A5DC"/>
<path d="M42.0001 82C30.9544 82 22.0001 73.0457 22.0001 62C22.0001 50.9543 30.9543 42 42 42C53.0457 42 62 50.9543 62 62C62 73.0457 53.0458 82 42.0001 82ZM42.0001 48C34.2681 48 28.0001 54.268 28.0001 62C28.0001 69.732 34.2681 76 42.0001 76C49.7321 76 56.0001 69.732 56.0001 62C56.0001 54.268 49.7321 48 42.0001 48Z" fill="#34C838"/>
<path d="M13.7158 70.2843C5.9053 62.4738 5.9053 49.8105 13.7158 42C21.5263 34.1896 34.1895 34.1895 42 42C49.8105 49.8105 49.8104 62.4738 42 70.2843C34.1895 78.0948 21.5263 78.0948 13.7158 70.2843ZM37.7574 46.2427C32.2901 40.7754 23.4258 40.7754 17.9584 46.2427C12.4911 51.71 12.4911 60.5743 17.9584 66.0417C23.4258 71.509 32.2901 71.509 37.7574 66.0417C43.2248 60.5743 43.2248 51.71 37.7574 46.2427Z" fill="#F4D84B"/>
<path d="M42 42C42 53.0457 33.0458 62 22.0001 62C10.9544 62 2 53.0457 2 42C2 30.9543 10.9543 22 22 22C33.0457 22 42 30.9543 42 42ZM8 42C8 49.732 14.268 56 22 56C29.732 56 36 49.732 36 42C36 34.268 29.732 28 22 28C14.268 28 8 34.268 8 42Z" fill="#FF5249"/>
<path d="M42 42C34.1895 49.8105 21.5263 49.8105 13.7158 42C5.9053 34.1896 5.90519 21.5262 13.7157 13.7157C21.5262 5.90523 34.1895 5.90523 42 13.7157C49.8104 21.5262 49.8105 34.1895 42 42ZM17.9583 17.9584C12.491 23.4257 12.491 32.29 17.9583 37.7574C23.4257 43.2247 32.29 43.2247 37.7573 37.7574C43.2246 32.29 43.2246 23.4257 37.7573 17.9584C32.29 12.491 23.4257 12.491 17.9583 17.9584Z" fill="#53A5DC"/>
<path d="M42 42C30.9543 42 22 33.0457 22 22C22 10.9543 30.9544 2 42.0001 2C53.0458 2 62 10.9543 62 22C62 33.0457 53.0457 42 42 42ZM42.0001 8C34.2681 8 28.0001 14.268 28.0001 22C28.0001 29.732 34.2681 36 42.0001 36C49.7321 36 56.0001 29.732 56.0001 22C56.0001 14.268 49.7321 8 42.0001 8Z" fill="#34C838"/>
<path d="M42 42C34.1895 34.1895 34.1895 21.5262 42 13.7157C49.8104 5.90523 62.4738 5.90529 70.2843 13.7158C78.0948 21.5263 78.0947 34.1895 70.2842 42C62.4737 49.8105 49.8105 49.8105 42 42ZM66.0417 17.9584C60.5744 12.4911 51.71 12.4911 46.2427 17.9584C40.7754 23.4258 40.7754 32.2901 46.2427 37.7574C51.71 43.2247 60.5743 43.2247 66.0417 37.7574C71.509 32.2901 71.509 23.4258 66.0417 17.9584Z" fill="#F4D84B"/>
<path d="M42 1C47.6507 1 52.78 3.23206 56.5547 6.8623C61.7907 6.96456 66.9956 9.01325 70.9912 13.0088C74.9868 17.0044 77.0345 22.2093 77.1367 27.4453C80.7673 31.2201 83 36.349 83 42C83 47.6507 80.767 52.779 77.1367 56.5537C77.0347 61.7901 74.987 66.9954 70.9912 70.9912C66.9957 74.9868 61.7907 77.0345 56.5547 77.1367C52.7799 80.7672 47.6509 83 42 83C36.3491 83 31.2201 80.7673 27.4453 77.1367C22.2093 77.0345 17.0044 74.9868 13.0088 70.9912C9.01299 66.9954 6.9643 61.7901 6.8623 56.5537C3.23232 52.779 1 47.6504 1 42C1 36.3493 3.23205 31.2201 6.8623 27.4453C6.96453 22.2093 9.01322 17.0044 13.0088 13.0088C17.0044 9.01321 22.2093 6.96454 27.4453 6.8623C31.2201 3.23205 36.3493 1.00003 42 1ZM42 71.665C40.8134 72.7478 39.5325 73.669 38.1855 74.4307C39.3918 74.8004 40.6726 75 42 75C43.3271 75 44.6075 74.8002 45.8135 74.4307C44.4668 73.6691 43.1864 72.7476 42 71.665ZM35.252 58.2891C33.4035 59.7947 31.2943 60.9912 29.002 61.8018C29.001 61.8677 29 61.9338 29 62C29 64.4845 29.6972 66.8062 30.9062 68.7803C33.1577 68.2395 35.2936 67.0922 37.0508 65.335C37.0973 65.2885 37.1419 65.2404 37.1875 65.1934C36.1397 62.9991 35.4943 60.6609 35.252 58.2891ZM48.7471 58.2891C48.5047 60.661 47.8594 62.999 46.8115 65.1934C46.8573 65.2405 46.9026 65.2883 46.9492 65.335C48.7062 67.0919 50.8417 68.2394 53.0928 68.7803C54.3021 66.8061 55 64.4847 55 62C55 61.9338 54.9981 61.8677 54.9971 61.8018C52.7048 60.9911 50.5954 59.7947 48.7471 58.2891ZM16.3711 62.2354C16.9626 63.3496 17.7275 64.3965 18.666 65.335C19.6041 66.273 20.65 67.0376 21.7637 67.6289C21.3499 66.1382 21.0959 64.5809 21.0225 62.9766C19.4184 62.9031 17.8616 62.6491 16.3711 62.2354ZM67.6279 62.2354C66.1374 62.649 64.5807 62.9031 62.9766 62.9766C62.9031 64.5807 62.649 66.1374 62.2354 67.6279C63.3494 67.0365 64.3966 66.2733 65.335 65.335C66.2733 64.3966 67.0365 63.3494 67.6279 62.2354ZM18.666 46.9502C16.909 48.7072 15.7596 50.8416 15.2188 53.0928C17.1931 54.3023 19.515 55 22 55C22.0659 55 22.1316 54.998 22.1973 54.9971C23.0079 52.7049 24.2044 50.5954 25.71 48.7471C23.3383 48.5046 21.0007 47.8593 18.8066 46.8115C18.7595 46.8573 18.7126 46.9036 18.666 46.9502ZM65.1924 46.8115C62.9983 47.8592 60.6608 48.5047 58.2891 48.7471C59.7947 50.5954 60.9911 52.7048 61.8018 54.9971C61.8677 54.9981 61.9338 55 62 55C64.4847 55 66.8061 54.302 68.7803 53.0928C68.2394 50.8419 67.0917 48.7071 65.335 46.9502C65.2882 46.9034 65.2397 46.8575 65.1924 46.8115ZM9.56836 38.1855C9.1987 39.3918 9 40.6727 9 42C9 43.327 9.19888 44.6075 9.56836 45.8135C10.3298 44.4668 11.2515 43.1864 12.334 42C11.2513 40.8134 10.3299 39.5325 9.56836 38.1855ZM74.4307 38.1855C73.669 39.5325 72.7478 40.8134 71.665 42C72.7476 43.1864 73.6691 44.4668 74.4307 45.8135C74.8002 44.6074 75 43.3271 75 42C75 40.6726 74.8004 39.3918 74.4307 38.1855ZM22 29C19.5152 29 17.193 29.6969 15.2188 30.9062C15.7595 33.1575 16.908 35.2926 18.665 37.0498C18.7115 37.0963 18.7596 37.1419 18.8066 37.1875C21.0006 36.1399 23.3384 35.4944 25.71 35.252C24.2044 33.4035 23.0078 31.2942 22.1973 29.002C22.1316 29.001 22.0659 29 22 29ZM61.8018 29.002C60.9912 31.2943 59.7947 33.4035 58.2891 35.252C60.6609 35.4943 62.9991 36.1397 65.1934 37.1875C65.2404 37.1419 65.2885 37.0973 65.335 37.0508C67.0922 35.2936 68.2395 33.1577 68.7803 30.9062C66.8062 29.6971 64.4845 29 62 29C61.9338 29 61.8677 29.001 61.8018 29.002ZM30.9062 15.2188C29.6969 17.193 29 19.5152 29 22C29 22.0659 29.001 22.1316 29.002 22.1973C31.2942 23.0078 33.4035 24.2044 35.252 25.71C35.4944 23.3384 36.1399 21.0006 37.1875 18.8066C37.1419 18.7596 37.0963 18.7115 37.0498 18.665C35.2926 16.908 33.1575 15.7595 30.9062 15.2188ZM53.0928 15.2188C50.8418 15.7596 48.7071 16.9083 46.9502 18.665C46.9035 18.7117 46.8573 18.7595 46.8115 18.8066C47.8593 21.0007 48.5046 23.3383 48.7471 25.71C50.5954 24.2044 52.7049 23.0079 54.9971 22.1973C54.998 22.1316 55 22.0659 55 22C55 19.515 54.3023 17.1931 53.0928 15.2188ZM21.7637 16.3701C20.6496 16.9616 19.6034 17.7267 18.665 18.665C17.7267 19.6034 16.9616 20.6496 16.3701 21.7637C17.8608 21.3498 19.4181 21.096 21.0225 21.0225C21.096 19.4181 21.3498 17.8608 21.7637 16.3701ZM62.2354 16.3711C62.6491 17.8616 62.9031 19.4184 62.9766 21.0225C64.5809 21.0959 66.1382 21.3499 67.6289 21.7637C67.0375 20.6498 66.2732 19.6033 65.335 18.665C64.3965 17.7266 63.3495 16.9626 62.2354 16.3711ZM42 9C40.6727 9.00001 39.3918 9.19869 38.1855 9.56836C39.5325 10.3299 40.8134 11.2513 42 12.334C43.1864 11.2515 44.4668 10.3298 45.8135 9.56836C44.6076 9.19889 43.327 9 42 9Z" stroke="#2D2D2D" stroke-width="2"/>
</svg>
